<?xml version="1.0" standalone="no"?>
<!DOCTYPE svg PUBLIC "-//W3C//DTD SVG 20010904//EN"
 "http://www.w3.org/TR/2001/REC-SVG-20010904/DTD/svg10.dtd">
<svg version="1.0" xmlns="http://www.w3.org/2000/svg"
 width="512" height="512" viewBox="0 0 512 512" preserveAspectRatio="xMidYMid meet">

    <g transform="translate(0,512) scale(0.1,-0.1)" fill="#000000" stroke="none">
        <path d="M306 5110 c-81 -25 -137 -130 -115 -214 11 -40 2142 -4667 2202
                -4781 18 -34 46 -69 65 -81 73 -49 173 -38 231 25 25 27 316 647 1138 2431
                1038 2249 1105 2398 1105 2447 -2 87 -51 152 -131 173 -93 25 -39 61 -1182
                -796 l-1059 -794 -1058 793 c-724 544 -1068 796 -1091 800 -42 9 -68 8 -105
                -3z"/>
    </g>
</svg>
