<?xml version="1.0" standalone="no"?>
<!DOCTYPE svg PUBLIC "-//W3C//DTD SVG 20010904//EN"
 "http://www.w3.org/TR/2001/REC-SVG-20010904/DTD/svg10.dtd">
<svg version="1.0" xmlns="http://www.w3.org/2000/svg"
 width="512" height="512" viewBox="0 0 512 512" preserveAspectRatio="xMidYMid meet">

    <g transform="translate(0,512) scale(0.1,-0.1)"
    fill="#000000" stroke="none">
        <path d="M2337 5110 c-626 -66 -1154 -315 -1587 -749 -215 -216 -356 -411
                -486 -671 -344 -692 -351 -1493 -18 -2208 208 -448 590 -865 1028 -1125 772
                -457 1734 -474 2511 -44 222 122 383 245 576 437 399 399 642 879 731 1445 31
                201 31 560 0 755 -45 275 -116 498 -237 745 -131 267 -270 461 -484 676 -215
                214 -409 353 -676 484 -246 121 -474 193 -740 235 -150 24 -479 34 -618 20z
                m461 -300 c517 -55 995 -283 1362 -650 543 -544 772 -1323 609 -2077 -73 -340
                -251 -702 -477 -973 -539 -645 -1379 -935 -2202 -760 -570 122 -1083 473
                -1414 970 -436 653 -498 1494 -162 2203 330 699 1011 1188 1783 1282 134 16
                372 18 501 5z"/>
        <path d="M2420 4514 c-14 -2 -65 -9 -115 -15 -569 -71 -1100 -416 -1415 -919
                -149 -238 -251 -539 -281 -830 -19 -191 2 -467 52 -665 75 -298 236 -607 435
                -830 91 -102 124 -125 178 -125 60 0 87 18 209 138 123 122 157 169 157 223 0
                72 -77 149 -149 149 -46 0 -88 -24 -153 -88 -67 -65 -50 -74 -153 78 -139 207
                -244 489 -271 728 l-7 62 87 0 c107 0 156 21 186 80 25 50 25 90 0 140 -30 59
                -79 80 -186 80 l-86 0 7 58 c32 272 152 560 328 790 l40 53 56 -54 c64 -63
                106 -87 152 -87 72 0 149 77 149 149 0 45 -24 88 -86 151 l-54 55 53 41 c218
                170 536 299 805 329 l62 7 0 -86 c0 -67 5 -96 20 -126 23 -45 80 -80 130 -80
                50 0 107 35 130 80 15 30 20 59 20 126 l0 86 58 -7 c160 -19 354 -76 508 -150
                83 -40 296 -174 308 -194 3 -4 -286 -214 -642 -467 -356 -252 -672 -482 -702
                -511 -69 -65 -114 -139 -137 -225 -35 -134 11 -284 123 -396 147 -147 363
                -181 546 -85 37 19 86 56 110 82 24 25 250 337 502 693 253 356 463 645 467
                642 20 -12 154 -225 194 -308 74 -154 131 -348 150 -508 l7 -58 -86 0 c-107 0
                -156 -21 -186 -80 -25 -50 -25 -90 0 -140 30 -59 79 -80 186 -80 l87 0 -7 -62
                c-31 -275 -169 -614 -334 -816 l-35 -44 -56 55 c-64 63 -106 87 -152 87 -72 0
                -149 -77 -149 -149 0 -54 34 -101 157 -223 122 -120 149 -138 209 -138 52 0
                84 21 161 107 264 294 428 643 490 1039 23 151 23 454 0 589 -77 437 -251 780
                -552 1080 -299 300 -648 478 -1075 550 -91 15 -397 28 -450 19z m773 -1326
                c-5 -7 -125 -175 -266 -373 -271 -381 -283 -395 -359 -395 -44 0 -114 36 -139
                71 -12 17 -23 47 -26 67 -9 66 29 100 427 382 201 143 367 259 369 260 2 0 -1
                -6 -6 -12z"/>
        <path d="M2161 1489 c-227 -44 -391 -278 -353 -505 31 -190 175 -339 361 -374
                70 -13 712 -13 782 0 186 35 330 184 361 374 38 231 -126 461 -361 506 -65 12
                -727 12 -790 -1z m779 -309 c45 -23 80 -80 80 -130 0 -50 -35 -107 -80 -130
                -37 -19 -58 -20 -380 -20 -322 0 -343 1 -380 20 -45 23 -80 80 -80 130 0 48
                35 107 78 129 35 19 58 20 380 21 324 0 345 -1 382 -20z"/>
    </g>
</svg>
