<?xml version="1.0" standalone="no"?>
<!DOCTYPE svg PUBLIC "-//W3C//DTD SVG 20010904//EN"
 "http://www.w3.org/TR/2001/REC-SVG-20010904/DTD/svg10.dtd">
<svg version="1.0" xmlns="http://www.w3.org/2000/svg"
 width="512" height="512" viewBox="0 0 512 512" preserveAspectRatio="xMidYMid meet">

    <g transform="translate(0,512) scale(0.1,-0.1)"
    fill="#000000" stroke="none">
        <path d="M1450 4946 c-333 -71 -572 -313 -636 -644 -12 -61 -14 -264 -14
                -1153 l0 -1080 -68 -84 c-78 -96 -159 -244 -197 -360 -212 -652 217 -1347 895
                -1450 236 -36 449 -3 665 105 339 168 561 476 615 855 41 289 -51 614 -239
                847 l-70 87 -3 1113 c-3 1004 -5 1118 -20 1168 -33 109 -60 170 -108 243 -112
                173 -271 287 -480 344 -78 21 -260 26 -340 9z m265 -321 c172 -45 305 -179
                350 -352 13 -49 15 -217 15 -1180 0 -926 2 -1129 14 -1156 7 -18 39 -59 71
                -92 157 -162 230 -340 230 -565 0 -174 -36 -297 -125 -433 -276 -424 -871
                -490 -1230 -137 -158 156 -235 342 -235 570 0 225 73 405 229 564 32 33 65 74
                72 92 12 28 14 225 14 1157 0 963 2 1131 15 1180 67 258 329 417 580 352z"/>
        <path d="M1535 3346 c-37 -17 -70 -52 -84 -89 -8 -19 -11 -271 -11 -775 l0
                -747 -64 -33 c-115 -60 -207 -177 -241 -309 -65 -249 94 -511 350 -578 342
                -89 669 237 580 578 -34 132 -126 249 -241 309 l-64 33 -2 762 c-3 751 -3 762
                -24 789 -11 15 -32 37 -46 47 -34 25 -113 32 -153 13z m128 -1920 c103 -43
                128 -177 48 -257 -65 -65 -157 -65 -222 0 -124 123 13 325 174 257z"/>
        <path d="M2815 4466 c-67 -29 -105 -106 -91 -181 9 -47 59 -102 104 -115 25
                -8 305 -10 874 -8 827 3 837 3 864 24 53 39 69 71 69 134 0 63 -16 95 -69 134
                -27 21 -36 21 -874 23 -689 2 -853 0 -877 -11z"/>
        <path d="M2815 3826 c-67 -29 -105 -106 -91 -181 9 -47 59 -102 104 -115 25
                -8 209 -10 554 -8 504 3 517 4 544 24 53 39 69 71 69 134 0 63 -16 95 -69 134
                -27 21 -40 21 -554 23 -423 2 -533 0 -557 -11z"/>
        <path d="M2815 3186 c-67 -29 -105 -106 -91 -181 9 -47 59 -102 104 -115 25
                -8 305 -10 874 -8 827 3 837 3 864 24 53 39 69 71 69 134 0 63 -16 95 -69 134
                -27 21 -36 21 -874 23 -689 2 -853 0 -877 -11z"/>
        <path d="M2815 2546 c-67 -29 -105 -106 -91 -181 9 -47 59 -102 104 -115 25
                -8 209 -10 554 -8 504 3 517 4 544 24 53 39 69 71 69 134 0 63 -16 95 -69 134
                -27 21 -40 21 -554 23 -423 2 -533 0 -557 -11z"/>
    </g>
</svg>
