<?xml version="1.0" standalone="no"?>
<!DOCTYPE svg PUBLIC "-//W3C//DTD SVG 20010904//EN"
 "http://www.w3.org/TR/2001/REC-SVG-20010904/DTD/svg10.dtd">
<svg version="1.0" xmlns="http://www.w3.org/2000/svg"
 width="512" height="512" viewBox="0 0 512 512" preserveAspectRatio="xMidYMid meet">

    <g transform="translate(0,512) scale(0.1,-0.1)"
    fill="#000000" stroke="none">
        <path d="M2514 4470 c-144 -26 -267 -93 -379 -205 -139 -139 -206 -289 -209
                -466 -1 -91 0 -97 28 -133 67 -89 190 -86 259 6 12 17 22 54 28 109 18 159 93
                270 227 337 72 35 81 37 171 37 87 0 102 -3 163 -32 93 -44 151 -100 196 -191
                35 -72 37 -81 37 -172 0 -91 -2 -100 -37 -172 -45 -91 -103 -147 -196 -191
                l-67 -32 -757 -5 c-745 -5 -757 -5 -784 -26 -52 -39 -69 -71 -69 -133 0 -48 5
                -64 29 -95 53 -70 13 -67 859 -64 l762 3 80 27 c116 40 199 92 290 183 91 91
                144 175 182 290 23 71 26 96 26 215 0 119 -3 144 -26 215 -38 115 -91 199
                -182 290 -139 140 -284 203 -475 210 -58 2 -128 0 -156 -5z"/>
        <path d="M4114 3830 c-144 -26 -267 -93 -379 -205 -139 -139 -206 -289 -209
                -466 -1 -91 0 -97 28 -133 67 -89 190 -86 259 6 12 17 22 54 28 109 18 159 93
                270 227 337 72 35 81 37 171 37 87 0 102 -3 163 -32 93 -44 151 -100 196 -191
                35 -72 37 -81 37 -172 0 -91 -2 -100 -37 -172 -45 -91 -103 -147 -196 -191
                l-67 -32 -2037 -5 -2037 -5 -27 -21 c-52 -39 -69 -71 -69 -133 0 -48 5 -64 29
                -95 54 -72 -120 -67 2139 -64 l2042 3 80 27 c116 40 199 92 290 183 91 91 144
                175 182 290 23 71 26 96 26 215 0 119 -3 144 -26 215 -38 115 -91 199 -182
                290 -139 140 -284 203 -475 210 -58 2 -128 0 -156 -5z"/>
        <path d="M735 2066 c-65 -29 -105 -107 -91 -178 7 -36 47 -92 79 -110 17 -10
                319 -14 1418 -18 l1395 -5 76 -37 c91 -45 147 -103 191 -196 29 -61 32 -76 32
                -162 0 -86 -3 -101 -32 -162 -44 -93 -100 -151 -191 -196 -72 -35 -81 -37
                -171 -37 -87 0 -102 3 -163 32 -138 65 -220 182 -237 339 -10 94 -19 114 -68
                151 -47 36 -136 40 -179 7 -60 -45 -69 -67 -68 -172 3 -179 70 -329 209 -467
                92 -92 176 -144 290 -182 71 -23 96 -26 215 -26 119 0 144 3 215 26 115 38
                199 91 290 182 91 91 144 175 182 290 23 71 26 96 26 215 0 119 -3 144 -26
                215 -38 115 -91 199 -182 290 -91 91 -174 143 -290 183 l-80 27 -1405 2
                c-1157 2 -1410 0 -1435 -11z"/>
    </g>
</svg>
